<mxfile host="app.diagrams.net" modified="2020-10-18T03:34:48.973Z" agent="5.0 (Windows NT 10.0; Win64; x64) AppleWebKit/537.36 (KHTML, like Gecko) Chrome/86.0.4240.80 Safari/537.36 Edg/86.0.622.43" etag="PthdXXCXJSttEMUibSwj" version="13.8.0" type="github">
  <diagram id="OSRPkGkU6NR_XRY8WRQ1" name="Page-1">
    <mxGraphModel dx="768" dy="415" grid="1" gridSize="10" guides="1" tooltips="1" connect="1" arrows="1" fold="1" page="1" pageScale="1" pageWidth="850" pageHeight="1100" background="#F1FAEE" math="0" shadow="0">
      <root>
        <mxCell id="0" />
        <mxCell id="1" parent="0" />
        <mxCell id="jtSkYpgdbQJTjtBJyziM-1" value="Khách hàng" style="shape=umlActor;verticalLabelPosition=bottom;verticalAlign=top;html=1;outlineConnect=0;fillColor=#A8DADC;strokeColor=#457B9D;fontColor=#1D3557;" vertex="1" parent="1">
          <mxGeometry x="50" y="230" width="30" height="100" as="geometry" />
        </mxCell>
        <mxCell id="jtSkYpgdbQJTjtBJyziM-3" value="Savings account&amp;nbsp;" style="ellipse;whiteSpace=wrap;html=1;fillColor=#A8DADC;strokeColor=#457B9D;fontColor=#1D3557;" vertex="1" parent="1">
          <mxGeometry x="330" y="70" width="120" height="60" as="geometry" />
        </mxCell>
        <mxCell id="jtSkYpgdbQJTjtBJyziM-5" value="Login function" style="ellipse;whiteSpace=wrap;html=1;fillColor=#A8DADC;strokeColor=#457B9D;fontColor=#1D3557;" vertex="1" parent="1">
          <mxGeometry x="180" y="240" width="120" height="80" as="geometry" />
        </mxCell>
        <mxCell id="jtSkYpgdbQJTjtBJyziM-7" value="Curent account&amp;nbsp;" style="ellipse;whiteSpace=wrap;html=1;fillColor=#A8DADC;strokeColor=#457B9D;fontColor=#1D3557;" vertex="1" parent="1">
          <mxGeometry x="330" y="200" width="120" height="60" as="geometry" />
        </mxCell>
        <mxCell id="jtSkYpgdbQJTjtBJyziM-8" value="Deposit account" style="ellipse;whiteSpace=wrap;html=1;fillColor=#A8DADC;strokeColor=#457B9D;fontColor=#1D3557;" vertex="1" parent="1">
          <mxGeometry x="365" y="360" width="120" height="60" as="geometry" />
        </mxCell>
        <mxCell id="jtSkYpgdbQJTjtBJyziM-9" value="ATM" style="ellipse;whiteSpace=wrap;html=1;fillColor=#A8DADC;strokeColor=#457B9D;fontColor=#1D3557;" vertex="1" parent="1">
          <mxGeometry x="190" y="400" width="120" height="60" as="geometry" />
        </mxCell>
        <mxCell id="jtSkYpgdbQJTjtBJyziM-10" value="" style="endArrow=none;html=1;exitX=0.5;exitY=0.5;exitDx=0;exitDy=0;exitPerimeter=0;entryX=0;entryY=0.5;entryDx=0;entryDy=0;labelBackgroundColor=#F1FAEE;strokeColor=#457B9D;fontColor=#1D3557;" edge="1" parent="1" source="jtSkYpgdbQJTjtBJyziM-1" target="jtSkYpgdbQJTjtBJyziM-5">
          <mxGeometry width="50" height="50" relative="1" as="geometry">
            <mxPoint x="110" y="250" as="sourcePoint" />
            <mxPoint x="420" y="260" as="targetPoint" />
          </mxGeometry>
        </mxCell>
        <mxCell id="jtSkYpgdbQJTjtBJyziM-11" value="" style="endArrow=classic;html=1;entryX=1;entryY=0;entryDx=0;entryDy=0;exitX=0.041;exitY=0.732;exitDx=0;exitDy=0;exitPerimeter=0;labelBackgroundColor=#F1FAEE;strokeColor=#457B9D;fontColor=#1D3557;" edge="1" parent="1" source="jtSkYpgdbQJTjtBJyziM-3" target="jtSkYpgdbQJTjtBJyziM-5">
          <mxGeometry width="50" height="50" relative="1" as="geometry">
            <mxPoint x="370" y="310" as="sourcePoint" />
            <mxPoint x="420" y="260" as="targetPoint" />
          </mxGeometry>
        </mxCell>
        <mxCell id="jtSkYpgdbQJTjtBJyziM-12" value="" style="endArrow=classic;html=1;labelBackgroundColor=#F1FAEE;strokeColor=#457B9D;fontColor=#1D3557;" edge="1" parent="1" source="jtSkYpgdbQJTjtBJyziM-8" target="jtSkYpgdbQJTjtBJyziM-5">
          <mxGeometry width="50" height="50" relative="1" as="geometry">
            <mxPoint x="370" y="310" as="sourcePoint" />
            <mxPoint x="420" y="260" as="targetPoint" />
          </mxGeometry>
        </mxCell>
        <mxCell id="jtSkYpgdbQJTjtBJyziM-13" value="" style="endArrow=classic;html=1;entryX=0.974;entryY=0.311;entryDx=0;entryDy=0;entryPerimeter=0;labelBackgroundColor=#F1FAEE;strokeColor=#457B9D;fontColor=#1D3557;" edge="1" parent="1" source="jtSkYpgdbQJTjtBJyziM-7" target="jtSkYpgdbQJTjtBJyziM-5">
          <mxGeometry width="50" height="50" relative="1" as="geometry">
            <mxPoint x="450" y="290" as="sourcePoint" />
            <mxPoint x="420" y="260" as="targetPoint" />
          </mxGeometry>
        </mxCell>
        <mxCell id="jtSkYpgdbQJTjtBJyziM-14" value="" style="endArrow=none;html=1;exitX=0.5;exitY=0.5;exitDx=0;exitDy=0;exitPerimeter=0;entryX=0.582;entryY=0.032;entryDx=0;entryDy=0;entryPerimeter=0;labelBackgroundColor=#F1FAEE;strokeColor=#457B9D;fontColor=#1D3557;" edge="1" parent="1" source="jtSkYpgdbQJTjtBJyziM-1" target="jtSkYpgdbQJTjtBJyziM-9">
          <mxGeometry width="50" height="50" relative="1" as="geometry">
            <mxPoint x="370" y="370" as="sourcePoint" />
            <mxPoint x="420" y="320" as="targetPoint" />
          </mxGeometry>
        </mxCell>
        <mxCell id="jtSkYpgdbQJTjtBJyziM-15" value="View account balance" style="ellipse;whiteSpace=wrap;html=1;fillColor=#A8DADC;strokeColor=#457B9D;fontColor=#1D3557;" vertex="1" parent="1">
          <mxGeometry x="510" y="200" width="110" height="60" as="geometry" />
        </mxCell>
        <mxCell id="jtSkYpgdbQJTjtBJyziM-16" value="" style="endArrow=classic;html=1;entryX=1;entryY=0.5;entryDx=0;entryDy=0;exitX=0;exitY=0.5;exitDx=0;exitDy=0;labelBackgroundColor=#F1FAEE;strokeColor=#457B9D;fontColor=#1D3557;" edge="1" parent="1" source="jtSkYpgdbQJTjtBJyziM-15" target="jtSkYpgdbQJTjtBJyziM-7">
          <mxGeometry width="50" height="50" relative="1" as="geometry">
            <mxPoint x="410" y="290" as="sourcePoint" />
            <mxPoint x="460" y="240" as="targetPoint" />
          </mxGeometry>
        </mxCell>
        <mxCell id="jtSkYpgdbQJTjtBJyziM-17" value="&amp;lt;&amp;lt;extend&amp;gt;&amp;gt;" style="text;html=1;strokeColor=none;fillColor=none;align=center;verticalAlign=middle;whiteSpace=wrap;rounded=0;fontColor=#1D3557;" vertex="1" parent="1">
          <mxGeometry x="461" y="230" width="40" height="20" as="geometry" />
        </mxCell>
        <mxCell id="jtSkYpgdbQJTjtBJyziM-18" value="" style="endArrow=classic;html=1;exitX=0.766;exitY=0.035;exitDx=0;exitDy=0;exitPerimeter=0;labelBackgroundColor=#F1FAEE;strokeColor=#457B9D;fontColor=#1D3557;" edge="1" parent="1" source="jtSkYpgdbQJTjtBJyziM-8" target="jtSkYpgdbQJTjtBJyziM-7">
          <mxGeometry width="50" height="50" relative="1" as="geometry">
            <mxPoint x="520" y="340" as="sourcePoint" />
            <mxPoint x="560" y="280" as="targetPoint" />
          </mxGeometry>
        </mxCell>
        <mxCell id="jtSkYpgdbQJTjtBJyziM-20" value="Short time" style="ellipse;whiteSpace=wrap;html=1;fillColor=#A8DADC;strokeColor=#457B9D;fontColor=#1D3557;" vertex="1" parent="1">
          <mxGeometry x="341" y="490" width="89" height="60" as="geometry" />
        </mxCell>
        <mxCell id="jtSkYpgdbQJTjtBJyziM-22" value="Mid-term" style="ellipse;whiteSpace=wrap;html=1;fillColor=#A8DADC;strokeColor=#457B9D;fontColor=#1D3557;" vertex="1" parent="1">
          <mxGeometry x="451" y="490" width="89" height="60" as="geometry" />
        </mxCell>
        <mxCell id="jtSkYpgdbQJTjtBJyziM-23" value="Long time" style="ellipse;whiteSpace=wrap;html=1;fillColor=#A8DADC;strokeColor=#457B9D;fontColor=#1D3557;" vertex="1" parent="1">
          <mxGeometry x="561" y="490" width="89" height="60" as="geometry" />
        </mxCell>
        <mxCell id="jtSkYpgdbQJTjtBJyziM-24" value="" style="endArrow=classic;html=1;exitX=0.326;exitY=0.044;exitDx=0;exitDy=0;exitPerimeter=0;labelBackgroundColor=#F1FAEE;strokeColor=#457B9D;fontColor=#1D3557;" edge="1" parent="1" source="jtSkYpgdbQJTjtBJyziM-20" target="jtSkYpgdbQJTjtBJyziM-8">
          <mxGeometry width="50" height="50" relative="1" as="geometry">
            <mxPoint x="370" y="440" as="sourcePoint" />
            <mxPoint x="410" y="423" as="targetPoint" />
          </mxGeometry>
        </mxCell>
        <mxCell id="jtSkYpgdbQJTjtBJyziM-25" value="" style="endArrow=classic;html=1;exitX=0.339;exitY=0.044;exitDx=0;exitDy=0;exitPerimeter=0;labelBackgroundColor=#F1FAEE;strokeColor=#457B9D;fontColor=#1D3557;" edge="1" parent="1" source="jtSkYpgdbQJTjtBJyziM-22">
          <mxGeometry width="50" height="50" relative="1" as="geometry">
            <mxPoint x="370" y="440" as="sourcePoint" />
            <mxPoint x="440" y="420" as="targetPoint" />
          </mxGeometry>
        </mxCell>
        <mxCell id="jtSkYpgdbQJTjtBJyziM-26" value="" style="endArrow=classic;html=1;entryX=1;entryY=1;entryDx=0;entryDy=0;labelBackgroundColor=#F1FAEE;strokeColor=#457B9D;fontColor=#1D3557;" edge="1" parent="1" source="jtSkYpgdbQJTjtBJyziM-23" target="jtSkYpgdbQJTjtBJyziM-8">
          <mxGeometry width="50" height="50" relative="1" as="geometry">
            <mxPoint x="370" y="440" as="sourcePoint" />
            <mxPoint x="420" y="390" as="targetPoint" />
          </mxGeometry>
        </mxCell>
        <mxCell id="jtSkYpgdbQJTjtBJyziM-27" value="&amp;lt;&amp;lt;extend&amp;gt;&amp;gt;" style="text;html=1;strokeColor=none;fillColor=none;align=center;verticalAlign=middle;whiteSpace=wrap;rounded=0;rotation=35;fontColor=#1D3557;" vertex="1" parent="1">
          <mxGeometry x="521" y="440" width="40" height="20" as="geometry" />
        </mxCell>
        <mxCell id="jtSkYpgdbQJTjtBJyziM-28" value="&amp;lt;&amp;lt;extend&amp;gt;&amp;gt;" style="text;html=1;strokeColor=none;fillColor=none;align=center;verticalAlign=middle;whiteSpace=wrap;rounded=0;rotation=60;fontColor=#1D3557;" vertex="1" parent="1">
          <mxGeometry x="460.9988052492903" y="450.0030491699108" width="40" height="20" as="geometry" />
        </mxCell>
        <mxCell id="jtSkYpgdbQJTjtBJyziM-29" value="&amp;lt;&amp;lt;extend&amp;gt;&amp;gt;" style="text;html=1;strokeColor=none;fillColor=none;align=center;verticalAlign=middle;whiteSpace=wrap;rounded=0;rotation=-60;fontColor=#1D3557;" vertex="1" parent="1">
          <mxGeometry x="349.9988052492903" y="440.0030491699108" width="40" height="20" as="geometry" />
        </mxCell>
        <mxCell id="jtSkYpgdbQJTjtBJyziM-30" value="&amp;lt;&amp;lt;include&amp;gt;&amp;gt;" style="text;html=1;strokeColor=none;fillColor=none;align=center;verticalAlign=middle;whiteSpace=wrap;rounded=0;rotation=-75;fontColor=#1D3557;" vertex="1" parent="1">
          <mxGeometry x="280" y="160" width="40" height="20" as="geometry" />
        </mxCell>
        <mxCell id="jtSkYpgdbQJTjtBJyziM-31" value="&amp;lt;&amp;lt;include&amp;gt;&amp;gt;" style="text;html=1;strokeColor=none;fillColor=none;align=center;verticalAlign=middle;whiteSpace=wrap;rounded=0;rotation=-15;fontColor=#1D3557;" vertex="1" parent="1">
          <mxGeometry x="319.9956391649411" y="264.99670697680654" width="40" height="20" as="geometry" />
        </mxCell>
        <mxCell id="jtSkYpgdbQJTjtBJyziM-32" value="&amp;lt;&amp;lt;include&amp;gt;&amp;gt;" style="text;html=1;strokeColor=none;fillColor=none;align=center;verticalAlign=middle;whiteSpace=wrap;rounded=0;rotation=30;fontColor=#1D3557;" vertex="1" parent="1">
          <mxGeometry x="299.99563916494105" y="339.99670697680654" width="40" height="20" as="geometry" />
        </mxCell>
        <mxCell id="jtSkYpgdbQJTjtBJyziM-33" value="&amp;lt;&amp;lt;include&amp;gt;&amp;gt;" style="text;html=1;strokeColor=none;fillColor=none;align=center;verticalAlign=middle;whiteSpace=wrap;rounded=0;rotation=60;fontColor=#1D3557;" vertex="1" parent="1">
          <mxGeometry x="390" y="300" width="50" height="20" as="geometry" />
        </mxCell>
        <mxCell id="jtSkYpgdbQJTjtBJyziM-35" value="Deposit settlement" style="ellipse;whiteSpace=wrap;html=1;fillColor=#A8DADC;strokeColor=#457B9D;fontColor=#1D3557;" vertex="1" parent="1">
          <mxGeometry x="650" y="205" width="120" height="60" as="geometry" />
        </mxCell>
        <mxCell id="jtSkYpgdbQJTjtBJyziM-37" value="" style="endArrow=classic;html=1;entryX=0.96;entryY=0.266;entryDx=0;entryDy=0;entryPerimeter=0;labelBackgroundColor=#F1FAEE;strokeColor=#457B9D;fontColor=#1D3557;" edge="1" parent="1" source="jtSkYpgdbQJTjtBJyziM-3" target="jtSkYpgdbQJTjtBJyziM-8">
          <mxGeometry width="50" height="50" relative="1" as="geometry">
            <mxPoint x="450" y="111" as="sourcePoint" />
            <mxPoint x="420" y="260" as="targetPoint" />
            <Array as="points">
              <mxPoint x="610" y="170" />
              <mxPoint x="640" y="230" />
              <mxPoint x="610" y="280" />
            </Array>
          </mxGeometry>
        </mxCell>
        <mxCell id="jtSkYpgdbQJTjtBJyziM-38" value="&amp;lt;&amp;lt;include&amp;gt;&amp;gt;" style="text;html=1;strokeColor=none;fillColor=none;align=center;verticalAlign=middle;whiteSpace=wrap;rounded=0;rotation=-35;fontColor=#1D3557;" vertex="1" parent="1">
          <mxGeometry x="570" y="300" width="40" height="20" as="geometry" />
        </mxCell>
        <mxCell id="jtSkYpgdbQJTjtBJyziM-40" value="" style="endArrow=classic;html=1;entryX=1;entryY=0.5;entryDx=0;entryDy=0;exitX=0.5;exitY=0;exitDx=0;exitDy=0;labelBackgroundColor=#F1FAEE;strokeColor=#457B9D;fontColor=#1D3557;" edge="1" parent="1" source="jtSkYpgdbQJTjtBJyziM-35" target="jtSkYpgdbQJTjtBJyziM-3">
          <mxGeometry width="50" height="50" relative="1" as="geometry">
            <mxPoint x="370" y="310" as="sourcePoint" />
            <mxPoint x="420" y="260" as="targetPoint" />
          </mxGeometry>
        </mxCell>
        <mxCell id="jtSkYpgdbQJTjtBJyziM-41" value="&amp;lt;&amp;lt;extend&amp;gt;&amp;gt;" style="text;html=1;strokeColor=none;fillColor=none;align=center;verticalAlign=middle;whiteSpace=wrap;rounded=0;rotation=15;fontColor=#1D3557;" vertex="1" parent="1">
          <mxGeometry x="561" y="120" width="40" height="20" as="geometry" />
        </mxCell>
        <mxCell id="jtSkYpgdbQJTjtBJyziM-42" value="Deposit payment confirmation" style="ellipse;whiteSpace=wrap;html=1;fillColor=#A8DADC;strokeColor=#457B9D;fontColor=#1D3557;" vertex="1" parent="1">
          <mxGeometry x="670" y="340" width="100" height="50" as="geometry" />
        </mxCell>
        <mxCell id="jtSkYpgdbQJTjtBJyziM-43" value="" style="endArrow=classic;html=1;entryX=0.5;entryY=0;entryDx=0;entryDy=0;labelBackgroundColor=#F1FAEE;strokeColor=#457B9D;fontColor=#1D3557;" edge="1" parent="1" target="jtSkYpgdbQJTjtBJyziM-42">
          <mxGeometry width="50" height="50" relative="1" as="geometry">
            <mxPoint x="720" y="265" as="sourcePoint" />
            <mxPoint x="660" y="370" as="targetPoint" />
          </mxGeometry>
        </mxCell>
        <mxCell id="jtSkYpgdbQJTjtBJyziM-44" value="&amp;lt;&amp;lt;include&amp;gt;&amp;gt;" style="text;html=1;strokeColor=none;fillColor=none;align=center;verticalAlign=middle;whiteSpace=wrap;rounded=0;rotation=-90;fontColor=#1D3557;" vertex="1" parent="1">
          <mxGeometry x="715" y="296" width="36.79" height="13.14" as="geometry" />
        </mxCell>
      </root>
    </mxGraphModel>
  </diagram>
</mxfile>
